<svg height="512" viewBox="0 0 128 128" width="512" xmlns="http://www.w3.org/2000/svg"><g><g><path d="m48.258 1.747h65.242v124.5h-65.242z" fill="#4d5680"/><circle cx="80.879" cy="30.153" fill="#f3f5f9" r="20.406" transform="matrix(.124 -.992 .992 .124 40.963 106.685)"/><path d="m85.892 35.919h-10.027a8.773 8.773 0 0 0 -8.773 8.774v.5a20.4 20.4 0 0 0 27.574 0v-.5a8.774 8.774 0 0 0 -8.774-8.774z" fill="#ffd830"/><path d="m80.879 29.451a5.17 5.17 0 0 1 -5.17-5.17v-2.037a5.17 5.17 0 0 1 5.17-5.17 5.17 5.17 0 0 1 5.17 5.17v2.037a5.17 5.17 0 0 1 -5.17 5.17z" fill="#ffd9b3"/><path d="m14.5 1.747h33.758v124.5h-33.758z" fill="#80a3ff"/><path d="m36.258 110.247h-9.758a4 4 0 0 0 -4 4 4 4 0 0 0 4 4h9.758a4 4 0 0 0 4-4 4 4 0 0 0 -4-4z" fill="#f3f5f9"/><path d="m36.258 92.558h-9.758a4 4 0 0 0 -4 4 4 4 0 0 0 4 4h9.758a4 4 0 0 0 4-4 4 4 0 0 0 -4-4z" fill="#80ecc6"/><path d="m36.258 74.869h-9.758a4 4 0 0 0 -4 4 4 4 0 0 0 4 4h9.758a4 4 0 0 0 4-4 4 4 0 0 0 -4-4z" fill="#ffd830"/><g fill="#80a3ff"><path d="m105.5 61h-49.242a1.75 1.75 0 0 1 0-3.5h49.242a1.75 1.75 0 0 1 0 3.5z"/><path d="m105.5 70.25h-49.242a1.75 1.75 0 0 1 0-3.5h49.242a1.75 1.75 0 0 1 0 3.5z"/><path d="m105.5 79.5h-49.242a1.75 1.75 0 0 1 0-3.5h49.242a1.75 1.75 0 0 1 0 3.5z"/><path d="m105.5 110.873h-35.063a1.75 1.75 0 0 1 0-3.5h35.063a1.75 1.75 0 0 1 0 3.5z"/><path d="m105.5 120h-28.406a1.75 1.75 0 0 1 0-3.5h28.406a1.75 1.75 0 0 1 0 3.5z"/><path d="m92.937 88.75h-24.117a1.75 1.75 0 0 1 0-3.5h24.117a1.75 1.75 0 1 1 0 3.5z"/></g><path d="m40.258 11.5h-17.758a1.75 1.75 0 0 1 0-3.5h17.758a1.75 1.75 0 0 1 0 3.5z" fill="#4d5680"/><path d="m40.258 19.938h-17.758a1.75 1.75 0 0 1 0-3.5h17.758a1.75 1.75 0 0 1 0 3.5z" fill="#4d5680"/><path d="m40.258 28.378h-17.758a1.75 1.75 0 0 1 0-3.5h17.758a1.75 1.75 0 0 1 0 3.5z" fill="#4d5680"/><path d="m40.258 36.818h-17.758a1.75 1.75 0 0 1 0-3.5h17.758a1.75 1.75 0 0 1 0 3.5z" fill="#4d5680"/></g><g><path d="m80.879 52.311a22.068 22.068 0 0 0 14.913-5.785 1.793 1.793 0 0 0 .167-.159 22.14 22.14 0 1 0 -15.08 5.944zm0-40.811a18.62 18.62 0 0 1 14.952 29.764 10.484 10.484 0 0 0 -2.184-3.682 1.75 1.75 0 0 0 -2.578 2.366 7 7 0 0 1 1.831 4.452 18.582 18.582 0 0 1 -24.045 0 7.026 7.026 0 0 1 7.008-6.726h7.76a1.75 1.75 0 0 0 0-3.5h-7.76a10.535 10.535 0 0 0 -9.938 7.093 18.621 18.621 0 0 1 14.954-29.767z"/><path d="m80.879 31.2a6.929 6.929 0 0 0 6.92-6.92v-2.033a6.92 6.92 0 1 0 -13.84 0v2.037a6.928 6.928 0 0 0 6.92 6.916zm-3.42-8.957a3.42 3.42 0 1 1 6.84 0v2.037a3.42 3.42 0 1 1 -6.84 0z"/><path d="m48.258 95.157a1.75 1.75 0 0 0 -1.75 1.75v3.375a1.75 1.75 0 0 0 3.5 0v-3.375a1.75 1.75 0 0 0 -1.75-1.75z"/><path d="m113.5 0h-99a1.75 1.75 0 0 0 -1.75 1.75v124.5a1.75 1.75 0 0 0 1.75 1.75h99a1.75 1.75 0 0 0 1.75-1.75v-124.5a1.75 1.75 0 0 0 -1.75-1.75zm-1.75 124.5h-61.742v-11.843a1.75 1.75 0 0 0 -3.5 0v11.843h-30.258v-121h30.258v81.032a1.75 1.75 0 0 0 3.5 0v-81.032h61.742z"/><path d="m36.258 108.5h-9.758a5.75 5.75 0 0 0 0 11.5h9.758a5.75 5.75 0 1 0 0-11.5zm0 8h-9.758a2.25 2.25 0 0 1 0-4.5h9.758a2.25 2.25 0 1 1 0 4.5z"/><path d="m36.258 90.811h-9.758a5.75 5.75 0 0 0 0 11.5h9.758a5.75 5.75 0 1 0 0-11.5zm0 8h-9.758a2.25 2.25 0 0 1 0-4.5h9.758a2.25 2.25 0 1 1 0 4.5z"/><path d="m36.258 73.122h-9.758a5.75 5.75 0 0 0 0 11.5h9.758a5.75 5.75 0 0 0 0-11.5zm0 8h-9.758a2.25 2.25 0 0 1 0-4.5h9.758a2.25 2.25 0 0 1 0 4.5z"/><path d="m56.258 61h49.242a1.75 1.75 0 0 0 0-3.5h-49.242a1.75 1.75 0 1 0 0 3.5z"/><path d="m56.258 70.253h49.242a1.75 1.75 0 0 0 0-3.5h-49.242a1.75 1.75 0 1 0 0 3.5z"/><path d="m105.5 76h-49.242a1.75 1.75 0 1 0 0 3.5h49.242a1.75 1.75 0 0 0 0-3.5z"/><path d="m105.5 107.377h-35.063a1.75 1.75 0 0 0 0 3.5h35.063a1.75 1.75 0 0 0 0-3.5z"/><path d="m105.5 116.5h-28.406a1.75 1.75 0 0 0 0 3.5h28.406a1.75 1.75 0 0 0 0-3.5z"/><path d="m92.937 88.753a1.75 1.75 0 0 0 0-3.5h-24.117a1.75 1.75 0 0 0 0 3.5z"/><path d="m40.258 8h-17.758a1.75 1.75 0 0 0 0 3.5h17.758a1.75 1.75 0 0 0 0-3.5z"/><path d="m40.258 16.44h-17.758a1.75 1.75 0 0 0 0 3.5h17.758a1.75 1.75 0 0 0 0-3.5z"/><path d="m40.258 24.881h-17.758a1.75 1.75 0 0 0 0 3.5h17.758a1.75 1.75 0 1 0 0-3.5z"/><path d="m40.258 33.321h-17.758a1.75 1.75 0 0 0 0 3.5h17.758a1.75 1.75 0 1 0 0-3.5z"/></g></g></svg>