<svg width="801" height="658" viewBox="0 0 801 658" fill="none" xmlns="http://www.w3.org/2000/svg">
<path d="M365.545 -17.2882C367.051 -18.0269 368.579 -18.7296 370.132 -19.3936C417.347 -39.5709 467.903 -8.05623 516.391 -8.4749C561.152 -8.86157 603.771 -31.7922 648.528 -30.9789C661.851 -30.7375 675.608 -28.1655 686.523 -20.2455C698.38 -11.6389 705.539 2.2011 715.567 13.0224C738.841 38.1464 778.38 48.3478 790.171 80.9571C799.465 106.662 786.969 134.62 777.107 160.097C760.217 203.725 750.641 252.87 764.409 297.658C774.265 329.724 795.567 357.902 800.084 391.226C804.053 420.498 794.471 450.486 780.672 476.036C762.323 510.012 762.468 548.858 753.48 585.553C747.603 609.547 735.652 633.799 714.063 645.806C694.668 656.59 671.893 655.447 650.461 656.637C628.305 657.866 607.093 658.973 584.871 656.392C547.344 652.034 510.468 642.957 472.725 640.301C403.908 635.456 335.481 652.181 266.592 655.744C228.583 657.708 188.273 654.978 156.477 633.316C129.359 614.84 111.345 583.885 104.476 551.024C97.608 518.16 101.235 483.574 111.037 451.52C122.973 412.49 144.199 374.225 139.684 333.552C136.853 308.049 124.08 285.024 116.792 260.488C106.789 226.808 107.581 189.101 122.467 157.416C131.331 138.546 145.36 122.182 162.567 111.073C182.475 98.2197 204.849 101.001 226.611 92.7664C282.889 71.4691 312.613 8.71442 365.545 -17.2882Z" fill="#D8C8E8"/>
<path d="M622.619 356.664C592.047 356.664 567.264 331.881 567.264 301.312C567.264 270.74 592.047 245.957 622.619 245.957C653.189 245.957 677.972 270.74 677.972 301.312C677.972 331.881 653.189 356.664 622.619 356.664ZM724.969 279.092H711.343C709.135 270.242 705.64 261.904 701.065 254.286L710.703 244.649C713.901 241.45 713.901 236.266 710.703 233.068L690.86 213.226C687.663 210.029 682.477 210.029 679.28 213.226L669.641 222.865C662.025 218.288 653.687 214.796 644.837 212.586V198.96C644.837 194.437 641.172 190.772 636.648 190.772H608.588C604.065 190.772 600.4 194.437 600.4 198.96V212.586C591.551 214.796 583.212 218.288 575.595 222.865L565.957 213.226C562.759 210.029 557.575 210.029 554.376 213.226L534.533 233.068C531.336 236.266 531.336 241.45 534.533 244.649L544.172 254.286C539.596 261.904 536.103 270.242 533.893 279.092H520.267C515.745 279.092 512.08 282.757 512.08 287.281V315.341C512.08 319.864 515.745 323.53 520.267 323.53H533.893C536.103 332.378 539.596 340.717 544.172 348.334L534.533 357.973C531.336 361.17 531.336 366.356 534.533 369.553L554.376 389.394C557.575 392.592 562.759 392.592 565.957 389.394L575.595 379.757C583.212 384.333 591.551 387.826 600.4 390.034V403.661C600.4 408.185 604.065 411.85 608.588 411.85H636.648C641.172 411.85 644.837 408.185 644.837 403.661V390.034C653.687 387.826 662.025 384.333 669.641 379.757L679.28 389.394C682.477 392.592 687.663 392.592 690.86 389.394L710.703 369.553C713.901 366.356 713.901 361.17 710.703 357.973L701.065 348.334C705.64 340.717 709.135 332.378 711.343 323.53H724.969C729.492 323.53 733.157 319.864 733.157 315.341V287.281C733.157 282.757 729.492 279.092 724.969 279.092" fill="#6B50AD"/>
<path d="M362.125 312.241C339.352 312.241 320.891 293.781 320.891 271.006C320.891 248.234 339.352 229.773 362.125 229.773C384.897 229.773 403.359 248.234 403.359 271.006C403.359 293.781 384.897 312.241 362.125 312.241V312.241ZM438.368 254.456H428.217C426.572 247.864 423.971 241.653 420.561 235.978L427.741 228.798C430.123 226.417 430.123 222.554 427.741 220.172L412.96 205.392C410.579 203.009 406.715 203.009 404.333 205.392L397.153 212.57C391.479 209.162 385.268 206.56 378.676 204.914V194.764C378.676 191.394 375.945 188.664 372.576 188.664H351.673C348.305 188.664 345.573 191.394 345.573 194.764V204.914C338.981 206.56 332.769 209.162 327.095 212.57L319.916 205.392C317.533 203.009 313.672 203.009 311.289 205.392L296.509 220.172C294.127 222.554 294.127 226.417 296.509 228.798L303.689 235.978C300.28 241.653 297.677 247.864 296.031 254.456H285.881C282.512 254.456 279.781 257.186 279.781 260.556V281.458C279.781 284.828 282.512 287.558 285.881 287.558H296.031C297.677 294.15 300.28 300.362 303.689 306.036L296.509 313.216C294.127 315.597 294.127 319.461 296.509 321.842L311.289 336.624C313.672 339.005 317.533 339.005 319.916 336.624L327.095 329.444C332.769 332.853 338.981 335.454 345.573 337.1V347.252C345.573 350.62 348.305 353.35 351.673 353.35H372.576C375.945 353.35 378.676 350.62 378.676 347.252V337.1C385.268 335.454 391.479 332.853 397.153 329.444L404.333 336.624C406.715 339.005 410.579 339.005 412.96 336.624L427.741 321.842C430.123 319.461 430.123 315.597 427.741 313.216L420.561 306.036C423.971 300.362 426.572 294.15 428.217 287.558H438.368C441.737 287.558 444.468 284.828 444.468 281.458V260.556C444.468 257.186 441.737 254.456 438.368 254.456Z" fill="#9D8ACD"/>
<path d="M263.011 391.26C262.153 388.7 261.248 386.193 260.3 383.752L263.011 391.26" fill="#F2D264"/>
<path d="M260.203 405.729L260.26 383.653C255.54 371.522 249.855 360.981 244.769 353.105C239.072 359.142 237.225 377.894 237.225 377.894C237.76 358.526 239.833 352.737 240.032 346.396C231.653 335.474 218.873 329.556 208.769 323.054C212.816 346.076 212.511 351.877 212.511 351.877C211.176 338.089 206.663 328.553 204.387 320.364C178.644 305.205 165.32 309.173 165.32 309.173C165.571 318.901 168.741 340.469 169.701 348.788C180.568 358.041 195.632 367.185 195.632 367.185C187.827 364.685 177.609 358.632 170.356 353.954C172.005 365.993 171.86 364.017 174.949 373.537C185.779 383.432 207.76 394.756 207.76 394.756C198.22 392.441 184.897 385.258 177.623 381.073C183.887 397.288 192.325 410.197 202.504 421.724C213.763 426.71 225.756 430.43 225.756 430.43C220.263 430.108 213.361 428.474 206.988 426.602C219.012 439.193 233.164 450.385 248.819 462.942L264.655 469.372L269.628 445.718C271.92 426.873 268.591 408.026 263.084 391.484L260.203 405.729" fill="#F2D264"/>
<path d="M247.667 428.63C250.659 434.257 253.523 439.976 256.088 445.864C258.66 451.74 260.901 457.833 262.345 464.18L262.072 464.258C260.451 458.002 258.052 452.038 255.328 446.289C252.608 440.53 249.596 434.946 246.457 429.456C240.203 418.452 233.459 407.793 226.681 397.154C219.911 386.512 212.864 376.06 206.504 365.065C203.321 359.573 200.203 354.028 197.269 348.357C194.319 342.7 191.555 336.912 189.081 330.977L189.332 330.825C195.64 341.841 202.205 352.594 208.864 363.31C215.543 374.002 221.973 384.906 228.548 395.718C235.099 406.545 241.628 417.41 247.667 428.63" fill="#FEF3FA"/>
<path d="M227.035 464.478C227.224 441.138 228.733 431.309 227.031 423.604C213.608 413.633 199.017 407.236 184.868 403.233C196.785 429.397 193.84 447.888 193.84 447.888C193.203 428.954 184.017 410.644 178.772 401.652C143.159 393.145 111.967 398.902 111.967 398.902C115.248 410.509 118.739 421.068 122.44 430.712C138.347 437.738 159.271 443.044 159.271 443.044C149.115 442.986 134.968 439.565 124.809 436.681C130.481 450.538 136.628 462.406 143.261 472.692C159.32 480.502 189.233 485.816 189.233 485.816C177.049 486.64 158.819 483.034 148.785 480.748C161.285 497.885 175.391 510.226 191.168 520.246C206.24 521.99 221.809 521.934 221.809 521.934C215.101 523.621 206.297 524.262 198.055 524.422C216.377 535.024 236.832 543.14 259.512 552.329L280.532 554.081L279.273 523.746C273.453 478.258 256.164 448.82 234.785 429.885C229.777 439.301 227.035 464.478 227.035 464.478" fill="#9D8ACD"/>
<path d="M275.86 548.906C271.995 541.992 267.283 535.724 262.244 529.836C257.208 523.936 251.875 518.358 246.416 512.938C235.524 502.064 224.144 491.79 212.732 481.554C201.329 471.309 189.651 461.4 178.632 450.576C173.12 445.172 167.671 439.678 162.404 433.965C157.121 428.274 152.025 422.357 147.232 416.15L147.487 415.874C158.449 426.744 169.641 437.2 180.935 447.573C192.244 457.913 203.32 468.598 214.54 479.121C225.736 489.67 236.917 500.273 247.62 511.488C252.941 517.126 258.137 522.924 263.028 529.036C267.921 535.136 272.484 541.618 276.165 548.706L275.86 548.906" fill="#6758B1"/>
<path d="M686.105 465.012C687.897 463.444 689.625 461.848 691.284 460.232L686.105 465.012Z" fill="#9D8ACD"/>
<path d="M673.207 466.874L691.351 460.166C699.592 452.133 706.179 443.701 710.796 436.637C703.767 433.272 687.701 437.325 687.701 437.325C703.796 431.884 709.303 432.008 714.58 430.248C720.499 419.237 720.709 405.73 722.372 394.493C704.947 405.246 700.072 406.744 700.072 406.744C710.907 401.301 717.092 394.25 722.988 389.658C726.071 361.462 717.968 350.485 717.968 350.485C710.075 353.694 693.523 363.201 687.041 366.626C683.396 379.404 681.368 395.986 681.368 395.986C680.583 388.08 681.836 376.876 683.037 368.809C673.755 374.004 675.324 373.264 668.632 379.008C664.448 391.946 663.145 415.528 663.145 415.528C661.576 406.09 662.627 391.701 663.417 383.762C652.385 394.458 644.857 406.134 639.095 418.978C639.095 430.808 640.403 442.92 640.403 442.92C638.671 437.796 637.503 430.978 636.72 424.574C630.756 439.432 626.716 455.81 622.1 473.978L622.581 490.437L643.807 487.745C660.111 484.072 674.371 475.254 685.949 465.148L673.207 466.874" fill="#9D8ACD"/>
<path d="M649.849 462.417C646.317 466.877 642.664 471.249 638.764 475.401C634.875 479.552 630.688 483.47 626.003 486.736L625.839 486.508C630.385 483.109 634.409 479.089 638.139 474.834C641.876 470.582 645.364 466.117 648.732 461.562C655.491 452.472 661.788 443.034 668.056 433.576C674.332 424.121 680.349 414.473 687.061 405.286C690.413 400.692 693.832 396.141 697.42 391.72C700.991 387.286 704.737 382.985 708.711 378.906L708.924 379.088C702.176 388.234 695.736 397.534 689.36 406.909C683.012 416.294 676.399 425.518 669.915 434.845C663.408 444.153 656.863 453.456 649.849 462.417" fill="#6758B1"/>
<path d="M636.223 413.937C638.771 405.924 641.432 397.957 643.871 389.932C646.331 381.909 648.853 373.924 651.628 365.98L651.436 365.9C649.519 369.653 647.808 373.513 646.251 377.428C644.68 381.34 643.256 385.305 641.891 389.286C639.149 397.252 637.004 405.389 634.632 413.446C632.265 421.505 629.873 429.554 627.081 437.462C625.695 441.418 624.203 445.338 622.489 449.162C620.781 452.985 618.813 456.709 616.341 460.105L616.508 460.23C619.107 456.897 621.212 453.212 623.056 449.425C624.907 445.638 626.535 441.748 628.057 437.821C631.06 429.952 633.656 421.942 636.223 413.937V413.937ZM654.185 431.865C648.205 441.541 640.047 450.893 629.319 457.054L614.896 463.597L610.96 452.062C610.253 438.204 609.532 425.738 610.503 413.928C612.456 418.286 614.772 422.852 617.116 426.097C617.116 426.097 613.545 417.816 610.96 409.45C612.228 399.108 615.001 389.206 620.467 379.232C621.64 385.018 624.043 395.424 627.215 401.756C627.215 401.756 622.983 384.794 623.115 374.729C626.592 369.205 625.644 370.072 631.075 364.368C631.987 370.337 633.548 378.534 635.832 383.954C635.832 383.954 633.641 371.782 633.428 361.95C637.263 358.112 646.892 347.772 651.773 343.777C651.773 343.777 659.903 349.769 663.883 370.384C660.717 374.92 657.883 381.257 651.411 387.474C651.411 387.474 654.529 385.35 664.504 373.937C665.784 382.248 668.585 391.846 666.807 400.925C663.459 403.324 659.537 404.44 649.344 411.806C649.344 411.806 659.82 405.428 665.527 406.272C663.805 412.277 660.989 419.678 656.916 427.161L645.551 435.869L654.185 431.865ZM656.884 427.222C656.063 428.726 655.191 430.234 654.265 431.734L656.884 427.222Z" fill="#F57B43"/>
<path d="M668.207 512.045C683.64 517.054 689.809 520.218 695.313 520.57C705.04 512.753 712.667 503.329 718.603 493.732C698.488 497.061 686.909 491.032 686.909 491.032C699.612 494.512 713.885 491.558 721.065 489.566C734.969 465.084 738.387 440.882 738.387 440.882C729.928 440.88 722.117 441.252 714.861 441.969C706.513 452.232 698.139 466.552 698.139 466.552C700.533 459.076 706.084 449.358 710.355 442.472C699.849 443.76 690.553 445.817 682.195 448.562C673.289 458.773 662.825 479.721 662.825 479.721C665.107 470.565 671.727 457.876 675.571 450.956C661.305 456.596 649.849 464.422 639.545 473.965C634.892 484.713 631.317 496.205 631.317 496.205C631.753 490.908 633.371 484.281 635.179 478.172C623.897 489.47 613.769 502.858 602.415 517.662L596.377 532.799L616.785 538.199C648.301 543.397 671.833 536.79 689.349 524.978C684.267 519.32 668.207 512.045 668.207 512.045" fill="#F2D264"/>
<path d="M600.893 530.43C606.375 529.024 611.624 526.857 616.697 524.369C621.777 521.888 626.713 519.12 631.575 516.226C641.312 510.462 650.765 504.216 660.2 497.937C669.64 491.666 678.92 485.122 688.655 479.257C693.517 476.32 698.424 473.448 703.433 470.757C708.433 468.049 713.54 465.526 718.767 463.286L718.891 463.532C709.14 469.348 699.611 475.42 690.112 481.581C680.632 487.762 670.975 493.7 661.396 499.777C651.803 505.832 642.177 511.865 632.257 517.416C627.284 520.162 622.235 522.785 617.045 525.116C611.865 527.452 606.508 529.462 600.955 530.699L600.893 530.43" fill="#FAEBA0"/>
<path d="M640.601 540.892H261.724V321.253C261.724 310.906 270.112 302.518 280.46 302.518H621.867C632.213 302.518 640.601 310.906 640.601 321.253V540.892Z" fill="#382D88"/>
<path d="M622.619 520.312H279.708V319.974H622.619V520.312Z" fill="#6B50AD"/>
<path d="M710.117 599.681H192.211L261.724 540.892H640.603L710.117 599.681Z" fill="#9D8ACD"/>
<path d="M691.623 622.032H210.704C200.491 622.032 192.211 613.752 192.211 603.537V599.681H710.117V603.537C710.117 613.752 701.837 622.032 691.623 622.032Z" fill="#382D88"/>
<path d="M311.061 556.793H290.089C289.437 556.793 289.121 555.996 289.593 555.547L296.139 549.352C296.273 549.225 296.451 549.154 296.636 549.154H316.669C317.295 549.154 317.624 549.895 317.204 550.361L311.596 556.556C311.46 556.706 311.265 556.793 311.061 556.793" fill="#FEF3FA"/>
<path d="M344.267 556.793H323.089C322.477 556.793 322.143 556.077 322.537 555.608L327.732 549.413C327.869 549.249 328.072 549.154 328.285 549.154H348.525C349.105 549.154 349.448 549.806 349.12 550.285L344.861 556.48C344.728 556.676 344.505 556.793 344.267 556.793Z" fill="#FEF3FA"/>
<path d="M377.453 556.793H356.105C355.54 556.793 355.195 556.171 355.492 555.692L359.337 549.496C359.469 549.283 359.7 549.154 359.951 549.154H380.361C380.889 549.154 381.239 549.704 381.015 550.182L378.107 556.377C377.988 556.632 377.733 556.793 377.453 556.793Z" fill="#FEF3FA"/>
<path d="M410.615 556.793H389.141C388.632 556.793 388.283 556.276 388.472 555.802L390.968 549.606C391.077 549.333 391.343 549.154 391.637 549.154H412.172C412.64 549.154 412.985 549.595 412.871 550.052L411.313 556.247C411.235 556.568 410.945 556.793 410.615 556.793Z" fill="#FEF3FA"/>
<path d="M443.745 556.793H422.205C421.755 556.793 421.416 556.383 421.496 555.94L422.64 549.745C422.704 549.402 423.003 549.154 423.351 549.154H443.951C444.36 549.154 444.687 549.492 444.672 549.9L444.467 556.094C444.453 556.483 444.135 556.793 443.745 556.793Z" fill="#FEF3FA"/>
<path d="M476.841 556.793H455.303C454.913 556.793 454.593 556.483 454.581 556.094L454.375 549.9C454.361 549.492 454.689 549.154 455.096 549.154H475.696C476.044 549.154 476.344 549.402 476.407 549.745L477.551 555.94C477.633 556.383 477.292 556.793 476.841 556.793" fill="#FEF3FA"/>
<path d="M509.905 556.793H488.432C488.101 556.793 487.813 556.568 487.733 556.247L486.176 550.052C486.061 549.595 486.407 549.154 486.876 549.154H507.411C507.704 549.154 507.971 549.333 508.08 549.606L510.575 555.802C510.764 556.276 510.416 556.793 509.905 556.793Z" fill="#FEF3FA"/>
<path d="M542.941 556.793H521.593C521.313 556.793 521.059 556.632 520.94 556.377L518.033 550.182C517.808 549.704 518.157 549.154 518.687 549.154H539.096C539.347 549.154 539.579 549.283 539.709 549.496L543.555 555.692C543.853 556.171 543.507 556.793 542.941 556.793Z" fill="#FEF3FA"/>
<path d="M575.957 556.793H554.78C554.541 556.793 554.32 556.676 554.185 556.48L549.928 550.285C549.599 549.806 549.941 549.154 550.523 549.154H570.761C570.975 549.154 571.177 549.249 571.315 549.413L576.509 555.608C576.904 556.077 576.571 556.793 575.957 556.793" fill="#FEF3FA"/>
<path d="M608.957 556.793H587.985C587.781 556.793 587.587 556.706 587.451 556.556L581.843 550.361C581.423 549.895 581.752 549.154 582.377 549.154H602.412C602.596 549.154 602.773 549.225 602.908 549.352L609.453 555.547C609.927 555.996 609.609 556.793 608.957 556.793" fill="#FEF3FA"/>
<path d="M300.584 568.368H277.86C277.208 568.368 276.891 567.571 277.364 567.123L285.145 559.757C285.279 559.632 285.457 559.561 285.641 559.561H307.249C307.876 559.561 308.204 560.302 307.785 560.766L301.12 568.132C300.983 568.282 300.788 568.368 300.584 568.368" fill="#FEF3FA"/>
<path d="M336.312 568.368H313.384C312.771 568.368 312.437 567.652 312.831 567.183L319.007 559.818C319.143 559.654 319.347 559.561 319.559 559.561H341.373C341.955 559.561 342.297 560.212 341.969 560.692L336.908 568.056C336.773 568.252 336.551 568.368 336.312 568.368" fill="#FEF3FA"/>
<path d="M372.023 568.368H348.921C348.357 568.368 348.011 567.747 348.308 567.266L352.879 559.902C353.011 559.69 353.244 559.561 353.492 559.561H375.477C376.007 559.561 376.356 560.111 376.132 560.589L372.676 567.953C372.557 568.206 372.303 568.368 372.023 568.368Z" fill="#FEF3FA"/>
<path d="M288.387 581.844H263.624C262.971 581.844 262.653 581.047 263.128 580.599L272.451 571.773C272.584 571.647 272.761 571.577 272.947 571.577H296.375C297 571.577 297.329 572.317 296.909 572.782L288.921 581.606C288.785 581.757 288.591 581.844 288.387 581.844" fill="#FEF3FA"/>
<path d="M327.053 581.844H302.083C301.471 581.844 301.137 581.129 301.531 580.658L308.931 571.835C309.068 571.67 309.269 571.577 309.483 571.577H333.117C333.697 571.577 334.04 572.228 333.711 572.706L327.647 581.532C327.513 581.726 327.291 581.844 327.053 581.844" fill="#FEF3FA"/>
<path d="M365.699 581.844H340.56C339.993 581.844 339.648 581.223 339.947 580.742L345.423 571.918C345.555 571.705 345.787 571.577 346.035 571.577H369.84C370.368 571.577 370.717 572.126 370.493 572.604L366.353 581.428C366.235 581.682 365.979 581.844 365.699 581.844Z" fill="#FEF3FA"/>
<path d="M407.707 568.368H384.481C383.971 568.368 383.621 567.852 383.812 567.377L386.777 560.013C386.888 559.74 387.152 559.561 387.447 559.561H409.557C410.027 559.561 410.371 560.002 410.256 560.458L408.407 567.823C408.325 568.144 408.036 568.368 407.707 568.368" fill="#FEF3FA"/>
<path d="M519.991 581.844H379.056C378.545 581.844 378.195 581.326 378.387 580.853L381.94 572.029C382.049 571.756 382.315 571.577 382.609 571.577H516.437C516.733 571.577 516.997 571.756 517.107 572.029L520.66 580.853C520.852 581.326 520.503 581.844 519.991 581.844" fill="#FEF3FA"/>
<path d="M443.36 568.368H420.069C419.617 568.368 419.277 567.959 419.36 567.516L420.719 560.15C420.783 559.809 421.081 559.561 421.428 559.561H443.604C444.013 559.561 444.34 559.899 444.325 560.306L444.081 567.67C444.068 568.059 443.749 568.368 443.36 568.368" fill="#FEF3FA"/>
<path d="M478.977 568.368H455.688C455.299 568.368 454.979 568.059 454.967 567.67L454.721 560.306C454.708 559.899 455.035 559.561 455.443 559.561H477.619C477.967 559.561 478.264 559.809 478.328 560.15L479.688 567.516C479.769 567.959 479.429 568.368 478.977 568.368" fill="#FEF3FA"/>
<path d="M514.565 568.368H491.341C491.011 568.368 490.721 568.144 490.64 567.823L488.791 560.458C488.676 560.002 489.021 559.561 489.491 559.561H511.6C511.895 559.561 512.16 559.74 512.269 560.013L515.235 567.377C515.425 567.852 515.077 568.368 514.565 568.368" fill="#FEF3FA"/>
<path d="M550.125 568.368H527.025C526.745 568.368 526.491 568.206 526.371 567.953L522.917 560.589C522.692 560.111 523.04 559.561 523.569 559.561H545.555C545.805 559.561 546.036 559.69 546.168 559.902L550.739 567.266C551.036 567.747 550.691 568.368 550.125 568.368" fill="#FEF3FA"/>
<path d="M585.664 568.368H562.735C562.496 568.368 562.273 568.252 562.139 568.056L557.079 560.692C556.751 560.212 557.092 559.561 557.673 559.561H579.488C579.701 559.561 579.904 559.654 580.04 559.818L586.216 567.183C586.609 567.652 586.276 568.368 585.664 568.368" fill="#FEF3FA"/>
<path d="M592.14 576.093H568.043C567.805 576.093 567.583 575.977 567.448 575.781L565.336 572.706C565.007 572.228 565.349 571.577 565.929 571.577H589.564C589.777 571.577 589.979 571.67 590.116 571.835L592.695 574.909C593.087 575.377 592.753 576.093 592.14 576.093" fill="#FEF3FA"/>
<path d="M596.964 581.844H571.993C571.756 581.844 571.533 581.726 571.4 581.532L569.039 578.095C568.711 577.617 569.053 576.966 569.635 576.966H594.084C594.297 576.966 594.499 577.061 594.636 577.224L597.516 580.658C597.911 581.129 597.576 581.844 596.964 581.844" fill="#FEF3FA"/>
<path d="M635.423 581.844H610.66C610.456 581.844 610.261 581.757 610.125 581.606L607.016 578.171C606.596 577.708 606.925 576.966 607.551 576.966H631.795C631.979 576.966 632.156 577.036 632.291 577.164L635.919 580.599C636.393 581.047 636.076 581.844 635.423 581.844Z" fill="#FEF3FA"/>
<path d="M558.488 581.844H533.348C533.068 581.844 532.813 581.682 532.695 581.428L531.084 577.994C530.859 577.516 531.207 576.966 531.736 576.966H556.357C556.605 576.966 556.837 577.094 556.969 577.308L559.1 580.742C559.399 581.223 559.053 581.844 558.488 581.844" fill="#FEF3FA"/>
<path d="M621.187 568.368H598.463C598.259 568.368 598.065 568.282 597.928 568.132L591.261 560.766C590.843 560.302 591.172 559.561 591.797 559.561H613.407C613.589 559.561 613.768 559.632 613.903 559.757L621.683 567.123C622.156 567.571 621.839 568.368 621.187 568.368" fill="#FEF3FA"/>
<path d="M0.722656 18.2891L75.8053 74.6411L54.2547 101.314L0.722656 18.2891Z" fill="#71208C"/>
<path d="M0.722656 18.2891L58.6253 75.5357L54.2547 101.314L0.722656 18.2891Z" fill="#A94CAC"/>
<path d="M0.722656 18.289L104.512 67.805L75.8053 74.6411L0.722656 18.289Z" fill="#BD8CCC"/>
<path d="M0.722656 18.289L58.6253 75.5357L23.7 81.2037L0.722656 18.289Z" fill="#BD8CCC"/>
<path d="M341.833 49.6544C341.673 49.621 341.515 49.5583 341.364 49.4677C338.536 47.737 335.193 46.577 331.627 46.0664C330.836 45.9437 330.269 45.2104 330.384 44.4104C330.5 43.6104 331.24 43.0543 332.041 43.1677C335.991 43.7303 339.724 45.0303 342.893 46.9703C343.584 47.393 343.8 48.2943 343.379 48.9837C343.047 49.5237 342.42 49.7744 341.833 49.6544V49.6544ZM310.019 49.0343C309.547 48.9383 309.135 48.6117 308.947 48.1317C308.653 47.377 309.027 46.529 309.781 46.2357C313.355 44.8424 317.024 43.8663 320.684 43.3343C321.48 43.2223 322.228 43.7744 322.343 44.5744C322.459 45.3757 321.904 46.1183 321.104 46.2343C317.663 46.733 314.212 47.6504 310.843 48.9637C310.572 49.0704 310.284 49.089 310.019 49.0343V49.0343ZM352.449 67.909C351.827 67.7797 351.34 67.257 351.285 66.5944C350.981 62.9037 350.015 59.5864 348.411 56.733C348.016 56.029 348.265 55.1357 348.972 54.7397C349.675 54.3463 350.569 54.593 350.965 55.2997C352.776 58.5224 353.865 62.241 354.203 66.3544C354.269 67.1597 353.671 67.8677 352.863 67.933C352.723 67.945 352.583 67.9357 352.449 67.909V67.909ZM291.569 60.7184C291.276 60.6584 290.999 60.5064 290.781 60.269C290.24 59.6704 290.284 58.7437 290.881 58.1997C293.716 55.625 296.707 53.325 299.768 51.3637C300.448 50.9264 301.356 51.1263 301.791 51.8063C302.227 52.4877 302.028 53.393 301.348 53.829C298.423 55.7037 295.565 57.9023 292.852 60.3677C292.489 60.6943 292.012 60.809 291.569 60.7184V60.7184ZM347.892 89.121C347.779 89.097 347.664 89.0583 347.553 89.0063C346.824 88.6583 346.516 87.785 346.864 87.0557L347.64 85.4104C348.885 82.7344 349.84 79.925 350.48 77.0637C350.655 76.2824 351.424 75.7877 352.205 75.949C352.212 75.9504 352.221 75.9517 352.229 75.9544C353.019 76.1304 353.516 76.913 353.339 77.7037C352.652 80.769 351.629 83.777 350.296 86.6477L349.507 88.3157C349.211 88.937 348.533 89.253 347.892 89.121ZM277.631 77.613C277.467 77.5797 277.305 77.5171 277.155 77.4237C276.469 76.9984 276.255 76.097 276.681 75.4077C278.651 72.225 280.836 69.1664 283.179 66.3157C283.692 65.6944 284.612 65.6024 285.24 66.1157C285.864 66.629 285.955 67.5517 285.441 68.1757C283.181 70.925 281.072 73.8757 279.171 76.949C278.84 77.4864 278.215 77.733 277.631 77.613ZM337.013 108.173C336.831 108.136 336.653 108.062 336.491 107.953C335.82 107.502 335.64 106.592 336.093 105.921C338.1 102.938 340.028 99.8317 341.823 96.685C342.223 95.9824 343.117 95.7344 343.82 96.1384C344.523 96.5397 344.767 97.4344 344.367 98.1357C342.536 101.345 340.569 104.514 338.524 107.557C338.181 108.064 337.577 108.289 337.013 108.173V108.173ZM268.713 97.6157C268.679 97.6077 268.643 97.5997 268.607 97.589C267.829 97.369 267.377 96.5597 267.597 95.781L267.725 95.341C268.693 91.9997 269.945 88.609 271.441 85.2744C271.773 84.5357 272.645 84.2077 273.377 84.537C274.115 84.8677 274.445 85.7343 274.115 86.473C272.673 89.685 271.469 92.9463 270.535 96.165L270.415 96.581C270.204 97.3223 269.457 97.7677 268.713 97.6157ZM323.411 125.386C323.159 125.334 322.916 125.216 322.715 125.028C322.12 124.478 322.083 123.552 322.633 122.958C325.069 120.321 327.443 117.542 329.689 114.7C330.191 114.065 331.108 113.953 331.747 114.458C332.379 114.96 332.487 115.88 331.987 116.514C329.695 119.417 327.271 122.253 324.783 124.945C324.421 125.337 323.897 125.486 323.411 125.386V125.386ZM265.183 119.242C264.485 119.1 263.979 118.464 264.017 117.73C264.216 113.974 264.609 110.249 265.188 106.662C265.315 105.864 266.067 105.32 266.864 105.449C267.741 105.589 268.207 106.329 268.077 107.128C267.516 110.613 267.135 114.232 266.941 117.886C266.9 118.693 266.209 119.313 265.403 119.27C265.327 119.266 265.253 119.257 265.183 119.242ZM307.289 140.253C306.961 140.185 306.653 140.006 306.431 139.722C305.933 139.086 306.045 138.165 306.681 137.666C309.508 135.452 312.292 133.086 314.952 130.633C315.547 130.085 316.469 130.118 317.021 130.717C317.568 131.312 317.529 132.237 316.935 132.785C314.219 135.29 311.375 137.709 308.488 139.972C308.136 140.248 307.695 140.337 307.289 140.253V140.253ZM266.055 141.161C265.459 141.037 264.977 140.548 264.899 139.909C264.428 136.176 264.115 132.454 263.964 128.846C263.931 128.04 264.559 127.357 265.364 127.322C266.171 127.289 266.856 127.917 266.889 128.726C267.035 132.252 267.344 135.892 267.803 139.544C267.904 140.345 267.335 141.078 266.532 141.178C266.369 141.2 266.207 141.192 266.055 141.161V141.161ZM288.984 152.328C288.579 152.245 288.211 151.99 287.996 151.598C287.607 150.889 287.867 150 288.575 149.61C291.735 147.878 294.863 145.993 297.873 144.008C298.547 143.562 299.456 143.748 299.903 144.425C300.348 145.1 300.16 146.008 299.487 146.453C296.411 148.481 293.212 150.408 289.984 152.178C289.667 152.352 289.312 152.396 288.984 152.328V152.328ZM78.528 109.265C78.176 109.193 77.8493 108.99 77.6253 108.673C75.4853 105.626 73.5147 102.436 71.7667 99.1877C71.3827 98.4757 71.648 97.5877 72.36 97.2037C73.072 96.8197 73.9614 97.0877 74.344 97.7983C76.0387 100.945 77.948 104.037 80.0227 106.989C80.4867 107.65 80.328 108.564 79.6654 109.03C79.3214 109.272 78.9107 109.344 78.528 109.265V109.265ZM93.0227 125.696C92.772 125.644 92.5307 125.526 92.3293 125.34C89.5627 122.8 86.9387 120.132 84.5307 117.409C83.9947 116.804 84.0507 115.878 84.6573 115.342C85.2627 114.809 86.1893 114.864 86.724 115.469C89.0653 118.116 91.6174 120.71 94.3094 123.182C94.9054 123.729 94.9454 124.656 94.3987 125.252C94.0374 125.645 93.5093 125.796 93.0227 125.696V125.696ZM270.316 162.692C269.789 162.582 269.341 162.186 269.193 161.632C269.164 161.521 269.136 161.409 269.107 161.298C268.537 161.241 268.063 160.88 267.868 160.326C267.641 159.686 267.889 158.994 268.424 158.629C267.773 156.001 267.189 153.394 266.68 150.848C266.523 150.056 267.036 149.284 267.831 149.125C268.62 148.97 269.395 149.481 269.553 150.276C270.029 152.665 270.576 155.112 271.181 157.58C273.767 156.613 276.336 155.56 278.851 154.437C279.591 154.106 280.453 154.442 280.784 155.177C281.113 155.917 280.781 156.782 280.044 157.113C277.377 158.301 274.649 159.416 271.907 160.434C271.945 160.584 271.985 160.732 272.025 160.881C272.232 161.662 271.765 162.464 270.985 162.672C270.757 162.73 270.529 162.734 270.316 162.692V162.692ZM247.748 166.898C247.18 166.782 246.712 166.332 246.601 165.728C246.457 164.932 246.984 164.169 247.781 164.025C251.345 163.374 254.912 162.578 258.38 161.657C259.168 161.449 259.967 161.917 260.172 162.697C260.379 163.478 259.913 164.28 259.133 164.488C255.588 165.428 251.945 166.241 248.304 166.904C248.115 166.94 247.925 166.936 247.748 166.898V166.898ZM110.471 138.97C110.303 138.936 110.137 138.87 109.983 138.772C106.815 136.765 103.747 134.64 100.863 132.452C100.219 131.964 100.092 131.045 100.581 130.401C101.069 129.756 101.987 129.632 102.632 130.118C105.451 132.256 108.452 134.336 111.551 136.3C112.233 136.732 112.436 137.636 112.003 138.32C111.667 138.848 111.051 139.089 110.471 138.97V138.97ZM129.801 149.338C129.696 149.316 129.593 149.284 129.492 149.237C126.077 147.693 122.735 146.048 119.556 144.349C118.843 143.968 118.573 143.081 118.953 142.368C119.336 141.656 120.227 141.388 120.936 141.766C124.057 143.434 127.343 145.05 130.699 146.569C131.437 146.902 131.763 147.77 131.429 148.506C131.141 149.142 130.456 149.473 129.801 149.338V149.338ZM225.925 169.17C225.277 169.037 224.78 168.47 224.76 167.778C224.737 166.969 225.373 166.296 226.183 166.272C229.803 166.169 233.451 165.929 237.027 165.558C237.827 165.474 238.551 166.058 238.635 166.865C238.717 167.668 238.132 168.388 237.328 168.472C233.681 168.849 229.959 169.094 226.265 169.2C226.149 169.202 226.036 169.193 225.925 169.17V169.17ZM204.004 168.228C203.276 168.078 202.767 167.398 202.845 166.644C202.928 165.84 203.648 165.256 204.452 165.338C205.881 165.485 207.301 165.621 208.709 165.744C210.909 165.938 213.131 166.085 215.308 166.181C216.116 166.214 216.741 166.901 216.707 167.709C216.669 168.517 215.987 169.144 215.18 169.108C212.957 169.008 210.693 168.86 208.452 168.662C207.028 168.536 205.595 168.398 204.151 168.25C204.101 168.245 204.052 168.238 204.004 168.228V168.228ZM150.295 157.212C150.241 157.201 150.189 157.188 150.137 157.172C146.588 156.022 143.079 154.784 139.705 153.493C138.951 153.204 138.573 152.357 138.863 151.602C139.152 150.846 139.995 150.458 140.753 150.758C144.077 152.033 147.539 153.253 151.039 154.384C151.807 154.633 152.229 155.458 151.98 156.228C151.748 156.945 151.015 157.361 150.295 157.212ZM277.137 183.553C276.669 183.457 276.255 183.132 276.068 182.652C274.744 179.268 273.487 175.762 272.335 172.238C272.083 171.469 272.504 170.642 273.272 170.39C274.044 170.14 274.868 170.561 275.117 171.328C276.252 174.801 277.489 178.25 278.796 181.585C279.089 182.338 278.719 183.188 277.965 183.481C277.693 183.589 277.407 183.609 277.137 183.553V183.553ZM182.259 165.152C181.481 164.992 180.972 164.241 181.113 163.457C181.257 162.661 182.02 162.133 182.816 162.278C186.352 162.92 189.981 163.504 193.603 164.016C194.381 164.117 194.96 164.869 194.848 165.67C194.735 166.47 193.993 167.028 193.192 166.914C189.533 166.397 185.867 165.808 182.292 165.158C182.281 165.157 182.269 165.154 182.259 165.152V165.152ZM171.496 162.973C171.487 162.972 171.48 162.97 171.471 162.969C167.849 162.157 164.24 161.264 160.74 160.316C159.957 160.105 159.499 159.3 159.708 158.518C159.92 157.738 160.724 157.288 161.504 157.489C164.964 158.426 168.533 159.309 172.111 160.112C172.9 160.288 173.396 161.07 173.22 161.861C173.044 162.641 172.276 163.134 171.496 162.973V162.973ZM286.425 203.442C286.021 203.36 285.655 203.108 285.44 202.717C283.693 199.558 282.007 196.233 280.421 192.833C280.081 192.101 280.399 191.229 281.132 190.888C281.868 190.545 282.736 190.866 283.079 191.597C284.632 194.936 286.289 198.201 288.001 201.301C288.395 202.008 288.136 202.898 287.429 203.29C287.111 203.466 286.756 203.51 286.425 203.442ZM298.471 221.784C298.141 221.716 297.836 221.537 297.613 221.253C295.383 218.401 293.209 215.364 291.152 212.222C290.709 211.545 290.899 210.638 291.576 210.194C292.251 209.75 293.159 209.941 293.603 210.617C295.615 213.69 297.74 216.661 299.919 219.448C300.417 220.085 300.305 221.005 299.669 221.504C299.317 221.78 298.877 221.868 298.471 221.784ZM313.556 237.698C313.321 237.649 313.093 237.541 312.899 237.373C310.143 235.004 307.437 232.416 304.856 229.684C304.303 229.096 304.327 228.169 304.915 227.613C305.501 227.058 306.427 227.085 306.985 227.673C309.499 230.332 312.129 232.849 314.808 235.154C315.42 235.681 315.491 236.605 314.964 237.218C314.603 237.637 314.06 237.802 313.556 237.698V237.698ZM329 248.582C328.855 248.552 328.711 248.5 328.576 248.422C326.257 247.116 323.952 245.681 321.724 244.161C321.056 243.705 320.884 242.794 321.34 242.126C321.797 241.457 322.712 241.29 323.375 241.742C325.533 243.216 327.767 244.605 330.015 245.872C330.719 246.269 330.968 247.161 330.571 247.866C330.251 248.434 329.607 248.706 329 248.582" fill="#6B50AD"/>
<path d="M677.74 148.144H603.465C588.7 148.144 576.733 136.174 576.733 121.412V68.9064C576.733 54.1424 588.7 42.1757 603.465 42.1757H677.74C692.503 42.1757 704.471 54.1424 704.471 68.9064V121.412C704.471 136.174 692.503 148.144 677.74 148.144" fill="#F57B43"/>
<path d="M698.784 52.4464L664.032 87.1971C663.435 87.7957 662.805 88.3638 662.177 88.9024C655.981 94.2304 648.319 96.8944 640.596 96.8944C632.904 96.8944 625.211 94.2304 619.016 88.9024C618.387 88.3638 617.759 87.7957 617.16 87.1971L614.705 84.7424L582.439 52.4464C583.665 50.8598 585.073 49.4224 586.599 48.1651L618.956 80.4917L621.411 82.9464C622.009 83.5451 622.637 84.1131 623.296 84.6224C633.293 92.9731 647.929 92.9731 657.927 84.6518C658.585 84.1131 659.213 83.5451 659.812 82.9464L662.267 80.5224L694.593 48.1651C696.149 49.4224 697.527 50.8598 698.784 52.4464" fill="white"/>
<path d="M621.411 82.9464C622.009 83.5451 622.637 84.113 623.296 84.6224L619.016 88.9024L578.099 129.82C577.351 127.545 576.901 125.15 576.781 122.666L614.705 84.7424L618.956 80.4917L621.411 82.9464Z" fill="white"/>
<path d="M704.412 122.666C704.292 125.15 703.843 127.545 703.093 129.82L662.177 88.9024L657.927 84.6517C658.585 84.1131 659.213 83.5451 659.812 82.9464L662.267 80.5224L666.488 84.7424L704.412 122.666" fill="white"/>
<path d="M509.819 277.808L457.687 321.818L400.771 281.11L414.347 243.981L417.151 229.804L422.673 201.742L479.779 200.176L482.239 210.173L488.897 237.15L509.819 277.808" fill="#F2D264"/>
<path d="M482.239 210.173C476.457 220.393 460.577 234.174 417.151 229.804L422.673 201.742L479.779 200.176L482.239 210.173Z" fill="#DAB131"/>
<path d="M504.797 128.229C504.797 177.472 481.052 217.389 451.761 217.389C422.471 217.389 398.725 177.472 398.725 128.229C398.725 78.9877 422.471 64.389 451.761 64.389C481.052 64.389 504.797 78.9877 504.797 128.229Z" fill="#F2D264"/>
<path d="M477.912 69.361C477.912 69.361 478.104 97.8091 452.433 100.318C426.761 102.829 403.397 87.353 397.476 120.958V90.837L425.924 74.1024L477.912 69.361" fill="#DAB131"/>
<path d="M457.22 94.4024C441.899 101.532 414.761 87.1451 404.392 98.8104C394.023 110.477 400.407 147.696 403.804 163.314C405.148 169.494 422.736 164.634 433.556 170.336C418.672 184.378 433.556 196.356 449.929 196.356C465.468 196.356 480.212 191.4 470.3 172.401C477.912 164.141 494.253 171.988 497.559 164.966C502.305 154.877 499.661 107.884 499.661 107.884C493.181 105.94 478.275 87.7931 478.275 74.1824C478.275 74.1824 472.541 87.2744 457.22 94.4024V94.4024ZM510.337 86.0797C515.141 102.894 502.348 177.973 495.141 193.185C487.935 208.398 472.037 217.197 450.288 217.389C422.537 217.634 413.141 203.936 407.537 195.929C401.932 187.922 401.447 172.552 394.241 114.904C387.033 57.2557 432.747 49.509 449.561 49.509C466.375 49.509 474.307 49.249 477.511 60.4584C501.471 59.1317 505.533 69.2651 510.337 86.0797" fill="#21201F"/>
<path d="M433.556 125C433.556 129.197 431.235 132.6 428.371 132.6C425.508 132.6 423.187 129.197 423.187 125C423.187 120.801 425.508 117.398 428.371 117.398C431.235 117.398 433.556 120.801 433.556 125Z" fill="#21201F"/>
<path d="M477.912 125C477.912 129.197 475.589 132.6 472.727 132.6C469.863 132.6 467.541 129.197 467.541 125C467.541 120.801 469.863 117.398 472.727 117.398C475.589 117.398 477.912 120.801 477.912 125Z" fill="#21201F"/>
<path d="M435.821 177.445H466.353C466.353 177.445 463.053 190.654 452.324 190.654C441.595 190.654 437.111 182.922 435.821 177.445" fill="white"/>
<path d="M451.087 132.6C451.087 132.6 431.6 163.796 451.087 163.76V132.6Z" fill="#DAB131"/>
<path d="M390.929 129.804C390.393 126.837 390.103 123.794 390.103 120.689C390.103 90.0544 417.143 70.3851 450.5 70.3851C483.857 70.3851 510.899 90.0544 510.899 120.689C510.899 123.796 510.604 126.837 510.071 129.804H516.999C518.647 124.374 520.145 118.633 519.547 112.746C516.621 84.0104 492.72 56.2304 450.5 56.2304C412.367 56.2304 382.203 86.2024 382.203 116.49C382.203 122.402 382.353 124.376 384.005 129.804H390.929" fill="#7A7D82"/>
<path d="M393.617 163.026L387.424 163.684C380.349 164.434 373.973 159.573 373.188 152.828L369.727 123.157C368.939 116.41 374.036 110.333 381.112 109.584L387.305 108.926C391.091 108.525 394.501 111.125 394.923 114.736L399.709 155.764C400.131 159.373 397.404 162.625 393.617 163.026" fill="#7A7D82"/>
<path d="M508.557 163.026L514.751 163.684C521.827 164.434 528.2 159.573 528.987 152.828L532.449 123.157C533.236 116.41 528.139 110.333 521.063 109.584L514.869 108.926C511.084 108.525 507.673 111.125 507.251 114.736L502.465 155.764C502.044 159.373 504.772 162.625 508.557 163.026" fill="#7A7D82"/>
<path d="M466.353 53.689C466.353 53.689 462.212 67.2557 438.315 67.2904C414.417 67.3251 406.972 69.361 406.972 69.361C406.972 69.361 424.611 50.437 466.353 53.689Z" fill="#21201F"/>
<path d="M541.541 360.705C539.908 361.24 538.445 361.738 537.172 362.202C537.928 369.189 538.772 385.516 539.649 400.76L539.752 402.497C539.993 406.73 540.251 410.842 540.509 414.61C540.973 421.51 541.439 427.29 541.92 430.56C543.332 438.594 544.468 446.922 545.379 454.716C547.667 474.417 548.493 490.796 548.493 490.796C544.691 490.693 360.541 490.796 360.541 490.796L361.488 458.982L362.125 438.009L362.727 418.12L364.361 363.114C362.709 362.564 359.888 361.978 356.361 361.377C342.94 359.054 319.232 356.525 310.164 355.596C307.86 355.356 306.5 355.217 306.5 355.217C306.5 355.217 326.871 270.172 339.396 256.7C362.176 242.368 385.833 236.776 417.044 229.773C417.044 229.773 415.1 241.56 420.899 251.71C434.885 276.108 481.135 271.772 487.311 244.329C488.791 237.756 487.087 229.79 487.087 229.79C487.087 229.79 551.091 243.073 563.496 257.886C573.2 274.284 591.041 346.786 591.041 346.786C591.041 346.786 589.287 347.234 586.379 348.009C576.709 350.554 554.273 356.542 541.541 360.705" fill="#382D88"/>
<path d="M524.205 310.325L537.167 362.205L539.747 402.497L524.205 360.288V310.325" fill="#1B1A3E"/>
<path d="M372.999 391.486L366.065 421.148L362.125 438.009L362.727 418.12L364.361 363.114L372.999 306.41V391.486Z" fill="#1B1A3E"/>
<path d="M333.267 525.944C333.267 525.944 267.923 529.447 252.955 536.142C237.985 542.837 255.219 576.762 265.683 578.194C273.341 579.241 338.139 572.699 347.303 563.245L333.267 525.944Z" fill="#21201F"/>
<path d="M333.267 525.944C333.267 525.944 304.915 531.978 299.632 538.859C294.351 545.741 293.433 564.468 297.356 565.247C301.277 566.028 306.224 572.18 347.303 563.245L333.267 525.944Z" fill="#F2D264"/>
<path d="M332.527 525.608L347.027 563.883L616.185 514.597C642.436 508.801 687.901 484.748 682.041 464.096C674.931 439.036 654.424 423.028 628.543 430.296L332.527 525.608Z" fill="#4359B1"/>
<path d="M366.065 421.148L362.727 418.12L345.453 402.516L356.361 361.377C342.94 359.054 319.232 356.525 310.164 355.596L299.859 408.209C298.568 414.8 301.475 421.51 307.171 425.072L361.488 458.982L379.897 470.477L394.281 446.646L366.065 421.148" fill="#F2D264"/>
<path d="M599.111 407.368L586.379 348.009C576.709 350.554 554.273 356.542 541.541 360.705L553.431 402.497L540.509 414.61L505.393 447.506L520.207 471.078L545.379 454.716L592.108 424.366C597.735 420.701 600.523 413.938 599.111 407.368" fill="#F2D264"/>
<path d="M577.467 525.083L563.496 563.556L285.028 514.577C258.7 509.144 228.285 488.217 227.82 472.704C227.179 451.249 258.247 423.84 284.225 430.75L577.467 525.083Z" fill="#4A6ABC"/>
<path d="M577.467 525.083C577.467 525.083 646.247 529.637 661.471 535.726C676.695 541.816 656.047 573.373 645.648 575.223C638.037 576.576 573.029 572.635 563.496 563.556L577.467 525.083" fill="#21201F"/>
<path d="M577.467 525.083C577.467 525.083 604.597 530.617 610.151 537.281C615.704 543.945 617.369 562.62 613.483 563.556C609.595 564.493 604.899 570.838 563.496 563.556L577.467 525.083Z" fill="#F2D264"/>
<path d="M554.253 360.313L539.884 473.504H357.657L355.519 456.642L343.288 360.313C343.288 353.256 348.999 347.544 356.04 347.544H541.501C548.543 347.544 554.253 353.256 554.253 360.313" fill="#E9EAEA"/>
<path d="M539.867 484.206H357.673C355.681 484.206 354.065 482.59 354.065 480.598V477.116C354.065 475.124 355.681 473.508 357.673 473.508H539.867C541.86 473.508 543.475 475.124 543.475 477.116V480.598C543.475 482.59 541.86 484.206 539.867 484.206Z" fill="#D3D4D3"/>
<path d="M448.771 396.07C447.651 396.07 446.565 396.202 445.517 396.437C445.568 396.881 445.6 397.33 445.6 397.789C445.6 404.237 440.392 409.466 433.952 409.506C433.907 409.985 433.879 410.47 433.879 410.961C433.879 419.186 440.545 425.853 448.771 425.853C456.995 425.853 463.661 419.186 463.661 410.961C463.661 402.737 456.995 396.07 448.771 396.07" fill="#D3D4D3"/>
<path d="M183.745 188.398C174.217 188.398 170.451 192.336 170.451 200.805C170.451 201.584 168.971 201.584 168.971 200.805C168.971 192.336 165.956 188.398 155.676 188.398C154.907 188.398 154.908 186.914 155.676 186.914C166.273 186.914 168.971 182.008 168.971 174.524C168.971 173.745 170.451 173.745 170.451 174.524C170.451 183.438 174.059 186.914 183.745 186.914C184.513 186.914 184.515 188.398 183.745 188.398Z" fill="#FCF4FA"/>
<path d="M255.145 123.521C240.928 123.521 235.307 129.396 235.307 142.034C235.307 143.197 233.097 143.197 233.097 142.034C233.097 129.396 228.599 123.521 213.259 123.521C212.111 123.521 212.112 121.306 213.259 121.306C229.075 121.306 233.097 113.985 233.097 102.814C233.097 101.653 235.307 101.653 235.307 102.814C235.307 116.118 240.692 121.306 255.145 121.306C256.293 121.306 256.293 123.521 255.145 123.521Z" fill="#FCF4FA"/>
<path d="M241.911 260.552C231.031 260.552 226.731 265.046 226.731 274.717C226.731 275.606 225.04 275.606 225.04 274.717C225.04 265.046 221.599 260.552 209.86 260.552C208.983 260.552 208.983 258.857 209.86 258.857C221.961 258.857 225.04 253.254 225.04 244.708C225.04 243.818 226.731 243.818 226.731 244.708C226.731 254.888 230.851 258.857 241.911 258.857C242.788 258.857 242.788 260.552 241.911 260.552Z" fill="#FCF4FA"/>
</svg>
