<svg width="197" height="188" viewBox="0 0 197 188" fill="none" xmlns="http://www.w3.org/2000/svg">
<rect x="1.25" y="1.25" width="194.5" height="185.5" fill="#808080" fill-opacity="0.8" stroke="black" stroke-width="2.5"/>
<g filter="url(#filter0_b)">
<path d="M87.8594 60.6133H96.7949L71.0625 132H62.8594L37.2734 60.6133H46.0625L62.4688 106.805C64.3568 112.111 65.8542 117.27 66.9609 122.283C68.1328 117.01 69.6628 111.753 71.5508 106.512L87.8594 60.6133ZM154.941 113.006C154.941 119.288 152.663 124.188 148.105 127.703C143.548 131.219 137.363 132.977 129.551 132.977C121.087 132.977 114.577 131.886 110.02 129.705V121.697C112.949 122.934 116.139 123.911 119.59 124.627C123.04 125.343 126.458 125.701 129.844 125.701C135.378 125.701 139.544 124.66 142.344 122.576C145.143 120.46 146.543 117.531 146.543 113.787C146.543 111.313 146.038 109.295 145.029 107.732C144.053 106.137 142.393 104.673 140.049 103.338C137.738 102.003 134.206 100.49 129.453 98.7969C122.812 96.4206 118.06 93.6048 115.195 90.3496C112.363 87.0944 110.947 82.8464 110.947 77.6055C110.947 72.1042 113.014 67.7259 117.148 64.4707C121.283 61.2155 126.751 59.5879 133.555 59.5879C140.651 59.5879 147.178 60.89 153.135 63.4941L150.547 70.7207C144.655 68.2467 138.926 67.0098 133.359 67.0098C128.965 67.0098 125.531 67.9538 123.057 69.8418C120.583 71.7298 119.346 74.3503 119.346 77.7031C119.346 80.1771 119.801 82.2116 120.713 83.8066C121.624 85.3691 123.154 86.8177 125.303 88.1523C127.484 89.4544 130.804 90.903 135.264 92.498C142.751 95.1673 147.894 98.0319 150.693 101.092C153.525 104.152 154.941 108.123 154.941 113.006Z" fill="black"/>
<path d="M87.8594 60.6133V59.6133H87.1534L86.9171 60.2785L87.8594 60.6133ZM96.7949 60.6133L97.7357 60.9524L98.2184 59.6133H96.7949V60.6133ZM71.0625 132V133H71.765L72.0032 132.339L71.0625 132ZM62.8594 132L61.918 132.337L62.1555 133H62.8594V132ZM37.2734 60.6133V59.6133H35.8527L36.3321 60.9507L37.2734 60.6133ZM46.0625 60.6133L47.0048 60.2786L46.7685 59.6133H46.0625V60.6133ZM62.4688 106.805L61.5264 107.139L61.5266 107.14L62.4688 106.805ZM66.9609 122.283L65.9845 122.499L67.9371 122.5L66.9609 122.283ZM71.5508 106.512L72.4916 106.851L72.4931 106.847L71.5508 106.512ZM87.8594 61.6133H96.7949V59.6133H87.8594V61.6133ZM95.8542 60.2742L70.1218 131.661L72.0032 132.339L97.7357 60.9524L95.8542 60.2742ZM71.0625 131H62.8594V133H71.0625V131ZM63.8007 131.663L38.2148 60.2759L36.3321 60.9507L61.918 132.337L63.8007 131.663ZM37.2734 61.6133H46.0625V59.6133H37.2734V61.6133ZM45.1202 60.948L61.5264 107.139L63.4111 106.47L47.0048 60.2786L45.1202 60.948ZM61.5266 107.14C63.402 112.41 64.8874 117.53 65.9845 122.499L67.9374 122.068C66.8209 117.01 65.3115 111.811 63.4109 106.469L61.5266 107.14ZM67.9371 122.5C69.0995 117.269 70.6175 112.053 72.4916 106.851L70.61 106.173C68.708 111.452 67.1661 116.75 65.9848 122.066L67.9371 122.5ZM72.4931 106.847L88.8017 60.9481L86.9171 60.2785L70.6085 106.177L72.4931 106.847ZM110.02 129.705H109.02V130.335L109.588 130.607L110.02 129.705ZM110.02 121.697L110.409 120.776L109.02 120.19V121.697H110.02ZM142.344 122.576L142.941 123.378L142.947 123.374L142.344 122.576ZM145.029 107.732L144.176 108.255L144.183 108.265L144.189 108.275L145.029 107.732ZM140.049 103.338L139.549 104.204L139.554 104.207L140.049 103.338ZM129.453 98.7969L129.116 99.7384L129.118 99.7389L129.453 98.7969ZM115.195 90.3496L114.441 91.006L114.445 91.0102L115.195 90.3496ZM117.148 64.4707L116.53 63.685L117.148 64.4707ZM153.135 63.4941L154.076 63.8313L154.391 62.952L153.535 62.5779L153.135 63.4941ZM150.547 70.7207L150.16 71.6427L151.133 72.0512L151.488 71.0578L150.547 70.7207ZM123.057 69.8418L123.663 70.6367L123.057 69.8418ZM120.713 83.8066L119.845 84.3028L119.849 84.3105L120.713 83.8066ZM125.303 88.1523L124.775 89.0018L124.783 89.0064L124.79 89.011L125.303 88.1523ZM135.264 92.498L134.927 93.4396L134.928 93.44L135.264 92.498ZM150.693 101.092L149.956 101.767L149.959 101.771L150.693 101.092ZM153.941 113.006C153.941 119.011 151.782 123.604 147.495 126.911L148.716 128.495C153.544 124.771 155.941 119.566 155.941 113.006H153.941ZM147.495 126.911C143.166 130.251 137.22 131.977 129.551 131.977V133.977C137.506 133.977 143.931 132.187 148.716 128.495L147.495 126.911ZM129.551 131.977C121.149 131.977 114.812 130.89 110.451 128.803L109.588 130.607C114.342 132.882 121.026 133.977 129.551 133.977V131.977ZM111.02 129.705V121.697H109.02V129.705H111.02ZM109.631 122.619C112.626 123.883 115.879 124.878 119.387 125.606L119.793 123.648C116.399 122.943 113.272 121.985 110.409 120.776L109.631 122.619ZM119.387 125.606C122.901 126.336 126.387 126.701 129.844 126.701V124.701C126.529 124.701 123.179 124.351 119.793 123.648L119.387 125.606ZM129.844 126.701C135.476 126.701 139.894 125.646 142.941 123.378L141.747 121.774C139.195 123.673 135.28 124.701 129.844 124.701V126.701ZM142.947 123.374C146.015 121.055 147.543 117.82 147.543 113.787H145.543C145.543 117.241 144.271 119.866 141.741 121.778L142.947 123.374ZM147.543 113.787C147.543 111.183 147.012 108.959 145.869 107.19L144.189 108.275C145.065 109.63 145.543 111.444 145.543 113.787H147.543ZM145.882 107.21C144.787 105.422 142.973 103.853 140.544 102.469L139.554 104.207C141.812 105.493 143.318 106.853 144.176 108.255L145.882 107.21ZM140.549 102.472C138.158 101.091 134.558 99.5533 129.789 97.8548L129.118 99.7389C133.854 101.426 137.317 102.915 139.549 104.204L140.549 102.472ZM129.79 97.8553C123.22 95.5042 118.649 92.761 115.946 89.689L114.445 91.0102C117.47 94.4486 122.405 97.337 129.116 99.7384L129.79 97.8553ZM115.95 89.6932C113.308 86.6571 111.947 82.6592 111.947 77.6055H109.947C109.947 83.0335 111.418 87.5317 114.441 91.006L115.95 89.6932ZM111.947 77.6055C111.947 72.3945 113.886 68.3122 117.767 65.2564L116.53 63.685C112.142 67.1396 109.947 71.8139 109.947 77.6055H111.947ZM117.767 65.2564C121.679 62.1761 126.909 60.5879 133.555 60.5879V58.5879C126.593 58.5879 120.886 60.2548 116.53 63.685L117.767 65.2564ZM133.555 60.5879C140.526 60.5879 146.915 61.8663 152.734 64.4104L153.535 62.5779C147.441 59.9136 140.776 58.5879 133.555 58.5879V60.5879ZM152.193 63.157L149.605 70.3836L151.488 71.0578L154.076 63.8313L152.193 63.157ZM150.934 69.7987C144.938 67.2808 139.077 66.0098 133.359 66.0098V68.0098C138.775 68.0098 144.372 69.2127 150.16 71.6427L150.934 69.7987ZM133.359 66.0098C128.834 66.0098 125.157 66.9808 122.45 69.0468L123.663 70.6367C125.904 68.9268 129.096 68.0098 133.359 68.0098V66.0098ZM122.45 69.0468C119.707 71.1404 118.346 74.0664 118.346 77.7031H120.346C120.346 74.6342 121.459 72.3193 123.663 70.6367L122.45 69.0468ZM118.346 77.7031C118.346 80.293 118.822 82.5131 119.845 84.3028L121.581 83.3105C120.781 81.91 120.346 80.0611 120.346 77.7031H118.346ZM119.849 84.3105C120.869 86.0587 122.54 87.6134 124.775 89.0018L125.83 87.3029C123.768 86.022 122.38 84.6796 121.577 83.3028L119.849 84.3105ZM124.79 89.011C127.056 90.3635 130.449 91.838 134.927 93.4396L135.6 91.5565C131.159 89.968 127.912 88.5453 125.815 87.2937L124.79 89.011ZM134.928 93.44C142.378 96.096 147.327 98.8939 149.956 101.767L151.431 100.417C148.461 97.1699 143.124 94.2386 135.599 91.5561L134.928 93.44ZM149.959 101.771C152.592 104.615 153.941 108.329 153.941 113.006H155.941C155.941 107.917 154.459 103.688 151.427 100.413L149.959 101.771Z" fill="black"/>
</g>
<line x1="18" y1="161.5" x2="179" y2="161.5" stroke="#FFD700" stroke-width="3"/>
<defs>
<filter id="filter0_b" x="31.8527" y="54.5879" width="128.089" height="83.3887" filterUnits="userSpaceOnUse" color-interpolation-filters="sRGB">
<feFlood flood-opacity="0" result="BackgroundImageFix"/>
<feGaussianBlur in="BackgroundImage" stdDeviation="2"/>
<feComposite in2="SourceAlpha" operator="in" result="effect1_backgroundBlur"/>
<feBlend mode="normal" in="SourceGraphic" in2="effect1_backgroundBlur" result="shape"/>
</filter>
</defs>
</svg>
